<svg width="352" height="70" viewBox="0 0 352 70" fill="none" xmlns="http://www.w3.org/2000/svg">
<rect y="0.875" width="352" height="1" fill="#383838"/>
<path d="M116 35C116 32.2386 118.239 30 121 30H151C153.761 30 156 32.2386 156 35V65C156 67.7614 153.761 70 151 70H121C118.239 70 116 67.7614 116 65V35Z" fill="white"/>
<g clip-path="url(#clip0_14_164)">
<path d="M149.987 48.7526C149.987 47.6464 149.895 46.8392 149.696 46.0021H136.769V50.9948H144.357C144.204 52.2356 143.378 54.1042 141.542 55.3598L141.516 55.5269L145.604 58.6209L145.887 58.6485C148.488 56.3016 149.987 52.8484 149.987 48.7526Z" fill="#4285F4"/>
<path d="M136.769 61.9073C140.486 61.9073 143.607 60.7113 145.887 58.6485L141.542 55.3598C140.379 56.152 138.819 56.7051 136.769 56.7051C133.128 56.7051 130.037 54.3583 128.936 51.1145L128.774 51.1279L124.524 54.3418L124.469 54.4928C126.733 58.8876 131.384 61.9073 136.769 61.9073Z" fill="#34A853"/>
<path d="M128.936 51.1145C128.645 50.2774 128.477 49.3804 128.477 48.4536C128.477 47.5268 128.645 46.6299 128.921 45.7928L128.913 45.6145L124.609 42.3489L124.469 42.4144C123.535 44.2381 123 46.2861 123 48.4536C123 50.6211 123.535 52.669 124.469 54.4928L128.936 51.1145Z" fill="#FBBC05"/>
<path d="M136.769 40.202C139.354 40.202 141.098 41.2933 142.093 42.2052L145.979 38.4979C143.592 36.3304 140.486 35 136.769 35C131.384 35 126.733 38.0196 124.469 42.4144L128.921 45.7928C130.037 42.549 133.128 40.202 136.769 40.202Z" fill="#EB4335"/>
</g>
<path d="M196 35C196 32.2386 198.239 30 201 30H231C233.761 30 236 32.2386 236 35V65C236 67.7614 233.761 70 231 70H201C198.239 70 196 67.7614 196 65V35Z" fill="#4A5CFF"/>
<path d="M218.072 58.6216V49.4011H221.182L221.645 45.791H218.072V43.4915C218.072 42.4498 218.362 41.7365 219.857 41.7365H221.752V38.5179C220.83 38.4189 219.903 38.3716 218.976 38.375C216.227 38.375 214.339 40.0535 214.339 43.1349V45.7843H211.249V49.3944H214.346V58.6216H218.072Z" fill="white"/>
<defs>
<clipPath id="clip0_14_164">
<rect width="27" height="27" fill="white" transform="translate(123 35)"/>
</clipPath>
</defs>
</svg>
