<svg width="11" height="11" viewBox="0 0 11 11" fill="none" xmlns="http://www.w3.org/2000/svg">
<g clip-path="url(#clip0_14_188)">
<path d="M8.59375 4.125H8.25V2.75C8.25 1.23338 7.01662 0 5.5 0C3.98338 0 2.75 1.23338 2.75 2.75V4.125H2.40625C1.83792 4.125 1.375 4.58746 1.375 5.15625V9.96875C1.375 10.5375 1.83792 11 2.40625 11H8.59375C9.16208 11 9.625 10.5375 9.625 9.96875V5.15625C9.625 4.58746 9.16208 4.125 8.59375 4.125ZM3.66667 2.75C3.66667 1.73892 4.48892 0.916667 5.5 0.916667C6.51108 0.916667 7.33333 1.73892 7.33333 2.75V4.125H3.66667V2.75ZM5.95833 7.66425V8.70833C5.95833 8.96133 5.75346 9.16667 5.5 9.16667C5.24654 9.16667 5.04167 8.96133 5.04167 8.70833V7.66425C4.76896 7.50521 4.58333 7.21279 4.58333 6.875C4.58333 6.36946 4.99446 5.95833 5.5 5.95833C6.00554 5.95833 6.41667 6.36946 6.41667 6.875C6.41667 7.21279 6.23104 7.50521 5.95833 7.66425Z" fill="#DADADA"/>
</g>
<defs>
<clipPath id="clip0_14_188">
<rect width="11" height="11" fill="white"/>
</clipPath>
</defs>
</svg>
