<svg width="13" height="13" viewBox="0 0 13 13" fill="none" xmlns="http://www.w3.org/2000/svg">
<g clip-path="url(#clip0_14_281)">
<path d="M10.1562 4.875H9.75V3.25C9.75 1.45763 8.29238 0 6.5 0C4.70763 0 3.25 1.45763 3.25 3.25V4.875H2.84375C2.17208 4.875 1.625 5.42154 1.625 6.09375V11.7812C1.625 12.4535 2.17208 13 2.84375 13H10.1562C10.8279 13 11.375 12.4535 11.375 11.7812V6.09375C11.375 5.42154 10.8279 4.875 10.1562 4.875ZM4.33333 3.25C4.33333 2.05508 5.30508 1.08333 6.5 1.08333C7.69492 1.08333 8.66667 2.05508 8.66667 3.25V4.875H4.33333V3.25ZM7.04167 9.05775V10.2917C7.04167 10.5907 6.79954 10.8333 6.5 10.8333C6.20046 10.8333 5.95833 10.5907 5.95833 10.2917V9.05775C5.63604 8.86979 5.41667 8.52421 5.41667 8.125C5.41667 7.52754 5.90254 7.04167 6.5 7.04167C7.09746 7.04167 7.58333 7.52754 7.58333 8.125C7.58333 8.52421 7.36396 8.86979 7.04167 9.05775Z" fill="#DADADA"/>
</g>
<defs>
<clipPath id="clip0_14_281">
<rect width="13" height="13" fill="white"/>
</clipPath>
</defs>
</svg>
