<svg width="600" height="432" viewBox="0 0 600 432" fill="none" xmlns="http://www.w3.org/2000/svg">
<g clip-path="url(#clip0_1_319)">
<path opacity="0.21" d="M306.652 355.308C376.803 285.085 376.803 171.232 306.652 101.01C236.501 30.7877 122.763 30.7877 52.6123 101.01C-17.5389 171.232 -17.5388 285.085 52.6123 355.308C122.763 425.53 236.501 425.53 306.652 355.308Z" fill="url(#paint0_linear_1_319)"/>
<path opacity="0.21" d="M420.367 382.286C519.575 382.286 600 301.779 600 202.47C600 103.161 519.575 22.6543 420.367 22.6543C321.158 22.6543 240.734 103.161 240.734 202.47C240.734 301.779 321.158 382.286 420.367 382.286Z" fill="url(#paint1_linear_1_319)"/>
<path opacity="0.39" d="M323.015 243.786C384.88 243.786 435.031 193.584 435.031 131.657C435.031 69.7289 384.88 19.5266 323.015 19.5266C261.15 19.5266 210.999 69.7289 210.999 131.657C210.999 193.584 261.15 243.786 323.015 243.786Z" fill="url(#paint2_linear_1_319)"/>
<path d="M268.794 213.71L266.273 233.643C265.755 237.739 266.704 241.887 268.951 245.349C271.198 248.811 274.598 251.365 278.547 252.556L304.234 260.332L299.133 213.736L268.794 213.71Z" fill="#E34D4D"/>
<path d="M392.868 243.648L409.371 349.056H319.727L347.77 241.816L392.868 243.648Z" fill="#161F52"/>
<path d="M344.386 94.1762C344.386 94.1762 345.422 83.4194 344.939 77.5269C344.455 71.6344 339.009 66.6664 331.353 66.7787C326.243 66.8565 305.666 69.4485 304.337 75.7643C303.181 81.2334 312.226 81.5358 312.226 81.5358L334.011 94.4958L344.386 94.1762Z" fill="#452D0A"/>
<path d="M348.702 117.236L381.682 127.362C390.975 130.216 399.402 135.363 406.189 142.329C412.975 149.295 417.904 157.857 420.522 167.227L434.703 218.039H266.36L273.61 164.558C274.584 157.421 277.425 150.669 281.844 144.985C286.264 139.302 292.106 134.888 298.779 132.192L325.397 121.444L348.702 117.236Z" fill="#FFD278"/>
<path d="M369.253 203.351C374.587 193.7 373.05 176.187 380.862 176.766L387.232 213.711L369.253 203.351Z" fill="#DB8953"/>
<path d="M302.162 166.562C304.898 143.536 311.959 130.058 315.618 124.399L323.481 121.245C323.481 121.245 311.518 134.853 307.755 166.562H302.162Z" fill="#7A2121"/>
<path d="M345.905 166.562C346.44 140.02 352.94 124.943 356.513 118.42C356.513 118.42 359.059 119.18 361.83 120.329C358.153 127.803 352.827 142.569 352.335 166.562H345.905Z" fill="#7A2121"/>
<path d="M346.017 163.08C345.966 164.221 345.931 165.378 345.905 166.536H352.344C352.344 165.352 352.405 164.195 352.456 163.08H346.017Z" fill="#450F0F"/>
<path d="M308.213 163.08H302.628C302.464 164.221 302.309 165.378 302.162 166.536H307.755C307.893 165.378 308.049 164.221 308.213 163.08Z" fill="#450F0F"/>
<path d="M289.906 165.836L293.065 196.24" stroke="#A65F30" stroke-width="0.78" stroke-miterlimit="10"/>
<path d="M266.36 218.039H388.466H434.721L432.312 209.382H267.534L266.36 218.039Z" fill="#DB8953"/>
<path d="M301.42 164.696H355.21L385.954 206.902L392.868 243.648L385.324 252.832L389.924 432L252.895 430.886L296.396 255.148L291.684 194.538L301.42 164.696Z" fill="#38479C"/>
<path d="M385.954 206.902L379.809 170.536" stroke="#A65F30" stroke-width="0.78" stroke-miterlimit="10"/>
<path d="M388.043 218.039L390.632 231.69L340.174 237.28C340.174 237.28 333.036 232.58 327.987 232.416C325.814 232.251 323.644 232.761 321.772 233.876C321.646 233.957 321.539 234.065 321.459 234.192C321.379 234.319 321.327 234.463 321.308 234.612C321.289 234.761 321.303 234.912 321.349 235.055C321.395 235.198 321.472 235.33 321.574 235.44C322.001 235.888 322.519 236.238 323.093 236.468C320.836 236.503 318.614 235.904 316.68 234.74C316.259 234.501 315.783 234.375 315.299 234.377H309.257C309.257 234.377 314.013 246.828 338.551 245.393C338.551 245.393 368.873 255.277 392.876 259.33C416.88 263.382 426.909 254.301 429.663 246.041C432.416 237.781 429.663 218.056 429.663 218.056L388.043 218.039Z" fill="#F77979"/>
<path d="M390.615 231.69L407.282 229.625" stroke="#7A2121" stroke-width="0.7" stroke-miterlimit="10"/>
<path d="M429.654 218.039H388.043L388.785 221.962C396.709 222.869 419.305 225.668 430.698 229.167C430.362 223.102 429.654 218.039 429.654 218.039Z" fill="#E34D4D"/>
<path d="M323.127 236.468C323.127 236.468 327.736 235.457 330.688 236.952" stroke="#051145" stroke-width="0.78" stroke-miterlimit="10"/>
<path d="M313.987 234.36C313.987 234.36 315.963 238.853 325.475 239.743" stroke="#051145" stroke-width="0.78" stroke-miterlimit="10"/>
<path d="M311.113 234.524C311.113 234.524 313.97 240.918 323.481 241.816" stroke="#051145" stroke-width="0.78" stroke-miterlimit="10"/>
<path d="M314.168 238.438C345.039 238.438 370.064 235.731 370.064 232.39C370.064 229.05 345.039 226.342 314.168 226.342C283.298 226.342 258.272 229.05 258.272 232.39C258.272 235.731 283.298 238.438 314.168 238.438Z" fill="#98A2D6"/>
<path d="M290.173 233.531C299.106 233.531 306.348 232.595 306.348 231.44C306.348 230.285 299.106 229.349 290.173 229.349C281.24 229.349 273.998 230.285 273.998 231.44C273.998 232.595 281.24 233.531 290.173 233.531Z" fill="#C1C8EB"/>
<path d="M337.179 233.064C346.112 233.064 353.354 232.128 353.354 230.973C353.354 229.818 346.112 228.882 337.179 228.882C328.246 228.882 321.004 229.818 321.004 230.973C321.004 232.128 328.246 233.064 337.179 233.064Z" fill="#C1C8EB"/>
<path d="M339.026 90.2622C340.752 87.1 345.068 86.2101 347.122 88.9662C349.176 91.7224 347.847 97.2261 343.601 98.116L348.779 117.236C347.338 119.648 345.306 121.652 342.877 123.059C340.447 124.467 337.699 125.231 334.892 125.28C327.365 125.6 325.346 121.47 325.346 121.47V110.67C325.346 110.67 317.733 109.702 315.066 104.622C312.399 99.5416 313.452 90.6942 313.452 90.6942C312.677 87.7019 312.269 84.6267 312.235 81.5358C317.819 81.2148 323.328 80.0886 328.591 78.1921C324.275 81.8382 323.248 84.8363 333.847 78.1921C333.77 83.9464 336.618 89.4501 339.026 90.2622Z" fill="#F77979"/>
<path d="M341.943 94.9191C340.364 93.7008 340.925 89.856 343.359 89.5709C345.793 89.2858 346.147 91.7223 345.784 92.6554" stroke="#7A2121" stroke-width="0.7" stroke-miterlimit="10"/>
<path d="M319.097 87.0654L320.357 88.0936C320.519 88.2239 320.647 88.392 320.73 88.5833C320.813 88.7745 320.848 88.9831 320.831 89.1909L320.512 94.0293" stroke="#7A2121" stroke-width="0.7" stroke-miterlimit="10"/>
<path d="M321.626 85.2424C322.522 84.7595 323.516 84.4868 324.532 84.4449C325.549 84.403 326.562 84.593 327.495 85.0004" stroke="#452D0A" stroke-miterlimit="10"/>
<path d="M317.543 86.0112C316.931 85.7418 316.257 85.6444 315.594 85.7297C314.931 85.8149 314.304 86.0795 313.78 86.495" stroke="#452D0A" stroke-miterlimit="10"/>
<path d="M341.305 102.341C341.305 102.341 338.456 115.456 325.354 116.424V109.382L341.305 102.341Z" fill="#E34D4D"/>
<path d="M314.591 89.2858C314.997 87.7133 317.258 87.6701 318.389 88.8451" stroke="#7A2121" stroke-width="0.7" stroke-miterlimit="10"/>
<path d="M326.839 88.7416C326.2 87.2469 323.956 87.5579 323.015 88.8971" stroke="#7A2121" stroke-width="0.7" stroke-miterlimit="10"/>
<path d="M338.094 95.6708C336.368 92.6295 338.767 90.1585 338.638 90.0894C337.488 90.8951 336.272 91.6032 335.004 92.2062C332.415 93.4244 327.659 92.7505 322.558 91.7828C317.905 90.9188 315.877 91.7828 313.253 94.2538C313.253 97.2778 313.504 101.589 315.074 104.622C317.741 109.728 325.354 110.67 325.354 110.67C335.487 111.646 343.955 99.0231 343.955 99.0231L343.601 98.1591C343.601 98.1591 339.794 98.7034 338.094 95.6708Z" fill="white"/>
<path d="M278.046 229.055C278.782 229.97 279.825 230.584 280.981 230.783C286.728 231.659 292.574 231.659 298.321 230.783C298.985 230.67 299.618 230.418 300.178 230.045C300.739 229.671 301.215 229.184 301.575 228.614C303.396 225.798 306.357 219.266 306.357 206.677H272.945C272.945 206.945 272.945 207.205 272.945 207.472C270.083 207.124 267.189 207.804 264.78 209.39C263.753 210.125 262.919 211.098 262.352 212.227C261.785 213.357 261.502 214.607 261.526 215.87C261.526 224.709 271.357 228.563 278.046 229.055ZM264.323 215.87C264.295 215.046 264.474 214.229 264.841 213.491C265.209 212.753 265.755 212.119 266.429 211.645C267.938 210.645 269.72 210.138 271.53 210.194C271.935 210.197 272.324 210.354 272.619 210.633C272.914 210.912 273.092 211.292 273.118 211.697C273.336 215.597 274.04 219.455 275.215 223.18C275.31 223.465 275.324 223.772 275.255 224.065C275.187 224.358 275.038 224.626 274.826 224.839C274.613 225.052 274.346 225.202 274.054 225.272C273.762 225.343 273.455 225.33 273.17 225.236C268.802 223.828 264.331 220.916 264.323 215.87Z" fill="white"/>
<path d="M358.3 176.766L345.077 180.654L337.792 224.39" stroke="#98A2D6" stroke-miterlimit="10"/>
<path d="M323.671 193.709L327.529 230.567C327.59 231.146 331.931 231.613 337.222 231.613C342.513 231.613 346.863 231.146 346.924 230.567L350.782 193.709H323.671Z" fill="white"/>
<path d="M323.628 202.211C328.319 202.211 332.121 198.404 332.121 193.709C332.121 189.013 328.319 185.207 323.628 185.207C318.937 185.207 315.135 189.013 315.135 193.709C315.135 198.404 318.937 202.211 323.628 202.211Z" fill="#FFD278"/>
<path d="M323.628 185.207V202.219" stroke="white" stroke-width="0.81" stroke-miterlimit="10"/>
<path d="M332.121 193.709H315.126" stroke="white" stroke-width="0.81" stroke-miterlimit="10"/>
<path d="M317.621 187.696L329.635 199.731" stroke="white" stroke-width="0.81" stroke-miterlimit="10"/>
<path d="M329.635 187.696L317.621 199.731" stroke="white" stroke-width="0.81" stroke-miterlimit="10"/>
<path d="M556.991 408.931H548.023L565.328 278.683H574.296L556.991 408.931Z" fill="#C1C8EB"/>
<path d="M462.392 408.931H453.416L470.721 278.683H479.689L462.392 408.931Z" fill="#C1C8EB"/>
<path d="M574.296 278.683H470.721C471.113 276.069 472.413 273.677 474.392 271.927C476.372 270.178 478.905 269.183 481.545 269.119H566.019C567.227 269.088 568.427 269.325 569.533 269.813C570.639 270.302 571.623 271.029 572.415 271.944C573.206 272.858 573.785 273.937 574.111 275.102C574.436 276.268 574.499 277.491 574.296 278.683Z" fill="white"/>
<path d="M571.94 296.421H468.365L469.634 286.857H573.209L571.94 296.421Z" fill="white"/>
<path d="M569.584 314.159H466.009L467.278 304.603H570.852L569.584 314.159Z" fill="white"/>
<path d="M567.227 331.897H463.652L464.921 322.341H568.496L567.227 331.897Z" fill="white"/>
<path d="M564.871 349.635H461.296L462.565 340.079H566.14L564.871 349.635Z" fill="white"/>
<path d="M562.515 367.373H458.94L460.209 357.817H563.783L562.515 367.373Z" fill="white"/>
<path d="M563.783 423.74H419.426V432H563.783V423.74Z" fill="#C1C8EB"/>
<path d="M425.658 408.931H557.577C559.23 408.931 560.815 409.588 561.984 410.758C563.153 411.928 563.809 413.515 563.809 415.169V423.74H419.426V415.169C419.426 413.515 420.083 411.928 421.251 410.758C422.42 409.588 424.005 408.931 425.658 408.931Z" fill="white"/>
<path d="M61.7651 408.931H70.7329L53.436 278.683H44.4681L61.7651 408.931Z" fill="#C1C8EB"/>
<path d="M156.372 408.931H165.34L148.034 278.683H139.066L156.372 408.931Z" fill="#C1C8EB"/>
<path d="M44.4595 278.683H148.034C147.644 276.073 146.348 273.684 144.373 271.935C142.399 270.186 139.872 269.189 137.237 269.119H52.7455C51.5364 269.086 50.3352 269.323 49.2283 269.81C48.1213 270.298 47.1362 271.026 46.3438 271.94C45.5514 272.855 44.9714 273.934 44.6456 275.1C44.3197 276.266 44.2562 277.49 44.4595 278.683Z" fill="white"/>
<path d="M46.8158 296.421H150.399L149.122 286.857H45.547L46.8158 296.421Z" fill="white"/>
<path d="M49.1807 314.159H152.747L151.478 304.603H47.9033L49.1807 314.159Z" fill="white"/>
<path d="M51.5284 331.897H155.112L153.834 322.341H50.2596L51.5284 331.897Z" fill="white"/>
<path d="M53.8934 349.635H157.468L156.191 340.079H52.616L53.8934 349.635Z" fill="white"/>
<path d="M56.2497 367.373H159.824L158.547 357.817H54.9723L56.2497 367.373Z" fill="white"/>
<path d="M54.9809 432H199.338V423.74H54.9809V432Z" fill="#C1C8EB"/>
<path d="M199.338 423.74H54.9809V415.169C54.9809 414.35 55.1421 413.539 55.4553 412.782C55.7685 412.025 56.2275 411.338 56.8062 410.758C57.3848 410.179 58.0718 409.72 58.8279 409.406C59.584 409.093 60.3943 408.931 61.2127 408.931H193.098C193.916 408.931 194.727 409.093 195.483 409.406C196.239 409.72 196.926 410.179 197.504 410.758C198.083 411.338 198.542 412.025 198.855 412.782C199.168 413.539 199.33 414.35 199.33 415.169V423.74H199.338Z" fill="white"/>
<path d="M144.357 228.882L179.469 232.744L186.918 386.485H131.894L144.357 228.882Z" fill="#318F61"/>
<path d="M171.304 228.882L173.893 233.712L177.855 387.21L215.323 386.234L208.28 235.336L171.304 228.882Z" fill="#38479C"/>
<path d="M183.681 282.96L193.504 259.675C194.538 257.23 194.854 254.54 194.414 251.921C193.974 249.302 192.795 246.864 191.018 244.892L177.605 229.98L171.304 228.882L173.893 233.712L176.44 332.528L191.622 306.608C192.862 304.484 193.455 302.045 193.327 299.589C193.2 297.132 192.358 294.767 190.906 292.784L183.681 282.96Z" fill="#161F52"/>
<path d="M184.475 195.074C184.475 195.074 192.822 195.316 194.608 189.026C196.395 182.736 189.585 173.802 183.845 172.904C181.411 167.642 158.918 167.884 151.797 170.156C150.261 170.588 148.834 171.344 147.612 172.372C146.391 173.4 145.402 174.677 144.713 176.117C144.023 177.558 143.649 179.13 143.614 180.727C143.58 182.324 143.886 183.911 144.513 185.38C144.513 185.38 140.309 201.744 152.125 206.928L184.475 195.074Z" fill="#161F52"/>
<path d="M89.1693 384.575V405.579C89.1693 412.586 91.9501 419.307 96.9 424.262C101.85 429.217 108.563 432 115.564 432H270.063L253.232 384.575H89.1693Z" fill="#161F52"/>
<path d="M173.324 409.735L198.139 404.43L174.541 388.912L173.324 409.735Z" fill="#F77979"/>
<path d="M158.815 194.668C158.815 194.668 157.356 189.726 152.989 190.46C148.621 191.195 144.815 201.96 155.25 202.686L152.1 206.902L145.298 229.746C145.298 229.746 149.545 239.017 163.993 238.464C172.892 238.144 173.867 233.686 173.867 233.686C172.859 231.401 172.434 228.901 172.633 226.411L173.16 220C173.16 220 176.94 220.19 181.308 214.419C185.675 208.647 183.975 199.826 183.975 199.826L186.892 188.162C186.892 188.162 181.144 185.57 179.694 180.23C179.694 180.23 173.341 188.637 163.674 189.544C163.213 189.585 162.769 189.744 162.387 190.006C162.004 190.268 161.696 190.623 161.49 191.039C160.886 192.326 159.876 194.072 158.815 194.668Z" fill="#F77979"/>
<path d="M157.848 210.125C157.848 210.125 160.204 223.768 172.676 226.204L173.445 218.16L157.848 210.125Z" fill="#E34D4D"/>
<path d="M178.485 192.318L177.268 194.633L178.485 200.154" stroke="#7A2121" stroke-width="0.7" stroke-miterlimit="10"/>
<path d="M174.877 192.802C174.601 194.046 173.773 194.919 173.039 194.746C172.305 194.573 171.934 193.441 172.219 192.154C172.504 190.866 173.315 190.037 174.057 190.201C174.8 190.365 175.162 191.558 174.877 192.802Z" fill="#051145"/>
<path d="M183.923 194.832C183.647 196.076 182.827 196.949 182.084 196.785C181.342 196.621 180.98 195.48 181.221 194.236C181.463 192.992 182.317 192.119 183.06 192.283C183.802 192.447 184.208 193.588 183.923 194.832Z" fill="#051145"/>
<path d="M180.729 189.847C181.67 189.554 182.672 189.518 183.631 189.743C184.59 189.967 185.472 190.445 186.184 191.126" stroke="#161F52" stroke-width="2" stroke-miterlimit="10"/>
<path d="M177.268 189.043C177.268 189.043 176.034 186.244 171.304 186.771" stroke="#161F52" stroke-width="2" stroke-miterlimit="10"/>
<path d="M146.377 226.204C149.069 240.965 149.965 255.999 149.044 270.976C147.43 294.952 140.655 375.952 140.655 375.952L176.56 387.616L177.855 412.24C177.855 412.24 139.015 412.56 110.851 412.24C82.6872 411.921 61.3335 399.203 61.6529 378.216C61.9722 357.229 76.5418 282.96 81.7205 265.144C86.8992 247.329 90.4639 235.656 105.353 232.096C120.242 228.537 146.377 226.204 146.377 226.204Z" fill="#38479C"/>
<path d="M142.545 353.16C124.333 332.286 116.522 291.056 116.522 291.056L108.262 365.092L140.689 375.952C140.689 375.952 141.449 366.526 142.545 353.16Z" fill="#263382"/>
<path d="M108.262 365.092L88.0299 358.413" stroke="#263382" stroke-width="0.78" stroke-miterlimit="10"/>
<path d="M118.8 273.318L108.262 365.092" stroke="#263382" stroke-width="0.78" stroke-miterlimit="10"/>
<path d="M144.142 333.737C146.066 310.176 148.224 283.185 149.044 270.976C149.965 255.999 149.069 240.965 146.377 226.204C146.377 226.204 144.228 226.403 140.81 226.757L128.605 246.456C127.618 248.048 127.029 249.855 126.889 251.723C126.75 253.591 127.063 255.466 127.803 257.187L140.309 286.278L135.441 291.28C133.373 293.412 131.989 296.115 131.469 299.041C130.95 301.967 131.317 304.981 132.524 307.696L144.142 333.737Z" fill="#161F52"/>
<path d="M156.907 196.88C156.665 194.694 155.906 192.508 153.921 192.689C151.936 192.871 149.873 196.266 151.513 198.945" stroke="#7A2121" stroke-width="0.7" stroke-miterlimit="10"/>
<path d="M157.857 192.672C157.857 192.672 159.488 194.651 164.183 196.189C168.879 197.727 173.565 196.517 177.285 197.053C179.695 197.477 181.985 198.414 184.001 199.8C184.001 199.8 185.848 207.282 182.274 212.976C178.701 218.67 174.955 221.348 168.085 219.482C161.214 217.616 155 209.589 153.938 202.47L155.293 202.634C155.293 202.634 159.022 206.401 161.525 201.908C164.028 197.415 158.858 194.616 158.858 194.616L157.857 192.672Z" fill="white"/>
<path d="M443.809 248.296C436.386 252.72 428.377 266.7 419.909 284.792C411.442 302.884 389.018 353.964 389.018 353.964H425.174L440.529 317.615L451.75 257.999L443.809 248.296Z" fill="#F77979"/>
<path d="M419.478 285.708C427.962 302.124 433.055 326.247 430.336 341.721L440.521 317.615L451.741 257.999L443.835 248.305C436.412 252.729 428.402 266.708 419.935 284.801L419.478 285.708Z" fill="#E34D4D"/>
<path d="M511.047 248.832L517.952 252.807L524.882 374.976H428.428L440.512 317.615C440.512 317.615 426.469 301.588 441.686 272.592C441.686 272.592 444.439 259.874 443.792 248.296L448.643 246.024L511.047 248.832Z" fill="#FFCA96"/>
<path d="M519.902 287.548L511.047 284.697C511.047 284.697 487.216 341.764 454.003 351.976C427.358 360.167 496.08 363.036 524.235 363.848L519.902 287.548Z" fill="#D9A573"/>
<path d="M524.882 374.976L529.198 405.397C529.666 408.704 529.42 412.072 528.476 415.275C527.532 418.477 525.912 421.44 523.725 423.962C521.539 426.484 518.837 428.506 515.802 429.893C512.768 431.28 509.471 431.998 506.135 432H361.131L380.551 373.922L524.882 374.976Z" fill="#161F52"/>
<path d="M486.128 186.365C486.128 186.365 491.221 183.453 497.66 189.043C504.098 194.633 502.027 200.215 505.669 205.2C509.312 210.185 514.162 210.911 515.164 216.864C516.165 222.817 512.98 222.558 513.705 227.915C514.43 233.271 515.768 237.643 510.063 239.587C504.357 241.531 490.884 236.425 484.333 236.425C477.782 236.425 465.034 237.522 457.749 233.142C455.231 231.728 453.214 229.566 451.977 226.955C450.74 224.344 450.344 221.412 450.844 218.566C451.448 215.525 452.415 213.918 451.707 208.198C450.999 202.478 451.949 197.83 457.654 195.152C463.359 192.473 463.299 188.715 465.422 184.576C467.545 180.438 479.085 176.645 486.128 186.365Z" fill="#161F52"/>
<path d="M490.194 233.029L489.33 218.013C489.731 218.281 490.193 218.443 490.673 218.484C491.153 218.525 491.635 218.443 492.075 218.246C495.674 216.622 497.487 208.967 493.56 207.688C491.376 206.971 489.831 208.794 488.899 210.496L488.718 207.308C478.921 205.278 479.223 194.348 479.223 194.348C473.561 199.204 467.571 197.502 463.204 200.828L463.359 209.33C463.359 209.33 459.967 215.084 461.633 220.182C463.299 225.279 471.015 227.56 471.015 227.56L470.54 234.058C470.488 234.713 470.262 235.343 469.884 235.881C469.506 236.419 468.99 236.846 468.391 237.116L448.6 246.024C448.6 246.024 457.662 253.8 475.995 255.018C494 256.211 510.986 248.858 510.986 248.858L492.334 236.736C491.71 236.332 491.19 235.785 490.818 235.141C490.446 234.496 490.232 233.773 490.194 233.029Z" fill="#F77979"/>
<path d="M486.75 222.351C486.75 222.351 481.45 232.045 470.773 231.682L471.075 227.561L486.75 222.351Z" fill="#E34D4D"/>
<path d="M472.025 203.576L472.594 205.191L471.058 209.771" stroke="#7A2121" stroke-width="0.7" stroke-miterlimit="10"/>
<path d="M474.718 204.258C475.693 202.962 479.033 203.006 480.224 204.664" stroke="#7A2121" stroke-width="0.7" stroke-miterlimit="10"/>
<path d="M465.344 204.258C466.311 202.962 469.66 203.006 470.842 204.664" stroke="#7A2121" stroke-width="0.7" stroke-miterlimit="10"/>
<path d="M474.476 200.664C474.476 200.664 477.065 199.653 481.657 201.07" stroke="#161F52" stroke-miterlimit="10"/>
<path d="M470.842 200.664C470.842 200.664 467.105 199.8 464.421 201.07" stroke="#161F52" stroke-miterlimit="10"/>
<path d="M489.65 212.976C490.254 211.438 491.626 209.52 493.102 209.771C494.578 210.021 493.913 213.339 493.102 214.393" stroke="#7A2121" stroke-width="0.7" stroke-miterlimit="10"/>
<path d="M488.899 210.496L488.821 209.123C485.955 209.435 483.073 209.571 480.19 209.529C476.073 209.408 471.999 208.051 469.116 208.164C467.151 208.294 465.212 208.686 463.35 209.33C463.35 209.33 459.958 215.084 461.624 220.182C463.29 225.279 471.006 227.56 471.006 227.56C477.765 228.977 484.687 226.152 489.322 218.964L489.261 218.013C489.261 218.013 484.868 220.735 483.927 216.717C482.986 212.7 487.501 210.289 488.899 210.496Z" fill="white"/>
<path d="M448.738 370.198C423.526 359.312 370.599 351.812 309.378 351.812C248.157 351.812 195.23 359.312 170.035 370.198H154.326V384.575C154.326 402.676 223.747 417.338 309.378 417.338C395.008 417.338 464.438 402.65 464.438 384.575V370.198H448.738Z" fill="#C1C8EB"/>
<path d="M320.383 392.472H298.373V432H320.383V392.472Z" fill="#C1C8EB"/>
<path d="M309.378 402.961C395.01 402.961 464.429 388.293 464.429 370.198C464.429 352.104 395.01 337.435 309.378 337.435C223.745 337.435 154.326 352.104 154.326 370.198C154.326 388.293 223.745 402.961 309.378 402.961Z" fill="white"/>
<path d="M263.296 379.339L197.759 372.004L230.868 351.994L296.405 359.329L263.296 379.339Z" fill="#318F61"/>
<path d="M390.166 379.339L455.712 372.004L422.602 351.994L357.057 359.329L390.166 379.339Z" fill="#318F61"/>
<path d="M214.106 378.76C210.654 379.391 205.613 374.579 204.068 368.341C202.523 362.103 224.628 364.375 224.628 364.375C224.628 364.375 219.121 377.845 214.106 378.76Z" fill="#263382"/>
<path d="M204.034 359.588L196.723 365.403L181.126 369.04C180.139 369.266 179.266 369.84 178.666 370.656C177.044 372.903 173.919 377.68 173.324 381.672C173.324 381.672 179.512 385.655 183.284 387.029C183.642 387.152 184.033 387.131 184.374 386.969C184.716 386.808 184.982 386.519 185.114 386.165C186.101 383.828 187.294 381.585 188.679 379.46C188.679 379.46 199.623 381.24 203.265 375.572L222.444 370.708C222.444 370.708 213.709 356.996 204.034 359.588Z" fill="#F77979"/>
<path d="M181.575 371.719C181.575 371.719 177.26 377.767 175.533 383.08" stroke="#E34D4D" stroke-width="0.78" stroke-miterlimit="10"/>
<path d="M184.009 374.198C181.711 377.431 179.878 380.971 178.563 384.713" stroke="#E34D4D" stroke-width="0.78" stroke-miterlimit="10"/>
<path d="M186.624 376.393C184.467 379.438 182.765 382.782 181.575 386.32" stroke="#E34D4D" stroke-width="0.78" stroke-miterlimit="10"/>
<path d="M208.28 235.578C222.599 238.758 229.643 250.163 240.078 266.199C246.75 276.446 261.656 309.9 271.53 332.727C272.77 335.588 273.408 338.674 273.404 341.793C273.401 344.912 272.756 347.997 271.51 350.855C270.264 353.714 268.443 356.285 266.161 358.409C263.879 360.533 261.185 362.163 258.246 363.2L214.106 378.752C214.106 378.752 218.638 362.422 203.671 359.502L228.917 336.174L203.671 287.79L208.28 235.578Z" fill="#38479C"/>
<path d="M228.917 336.183L241.778 325.167" stroke="#263382" stroke-width="0.78" stroke-miterlimit="10"/>
<path d="M209.92 270.7C209.92 270.7 218.819 300.594 220.226 319.542L211.405 302.651L209.92 270.7Z" fill="#263382"/>
<path d="M517.926 253.074C527.877 259.883 535.188 266.898 539.288 287.582C542.257 302.46 543.845 330.981 544.139 353.246C544.231 359.518 542.064 365.613 538.033 370.414C534.001 375.216 528.377 378.403 522.189 379.391C500.715 382.847 466.492 386.554 434.393 382.355C434.393 382.355 429.766 384.307 425.882 383.486C421.998 382.666 420.341 382.424 420.341 382.424C420.341 382.424 419.046 386.078 415.861 385.957C413.514 385.871 405.297 383.21 401.188 381.819C400.51 381.597 399.947 381.115 399.623 380.479C399.3 379.842 399.242 379.103 399.462 378.423C400.092 376.497 401.188 374.043 402.785 373.101C405.607 371.451 429.119 371.857 429.119 371.857L505.307 347.501L510.606 294.304C510.606 294.304 505.894 286.122 507.154 278.346C510.166 260.686 517.926 253.074 517.926 253.074Z" fill="#F77979"/>
<path d="M420.367 382.424L416.414 381.871" stroke="#7A2121" stroke-width="0.7" stroke-miterlimit="10"/>
<path d="M416.025 379.676C416.025 379.676 417.32 381.499 415.585 383.849" stroke="#7A2121" stroke-width="0.7" stroke-miterlimit="10"/>
<path d="M414.299 376.479C413.203 376.765 411.218 382.329 410.778 384.826" stroke="#7A2121" stroke-width="0.7" stroke-miterlimit="10"/>
<path d="M410.113 375.227C409.025 375.512 407.049 381.084 406.609 383.581" stroke="#7A2121" stroke-width="0.7" stroke-miterlimit="10"/>
<path d="M406.384 374.173C405.288 374.458 402.82 379.719 402.379 382.216" stroke="#7A2121" stroke-width="0.7" stroke-miterlimit="10"/>
<path d="M507.732 275.616C507.551 276.48 507.378 277.431 507.214 278.381C505.92 286.157 510.667 294.339 510.667 294.339C511.392 285.863 511.306 276.256 507.732 275.616Z" fill="#E34D4D"/>
<path d="M505.333 347.501L521.395 341.971L505.73 343.466L505.333 347.501Z" fill="#E34D4D"/>
<path d="M352.629 353.523C352.629 356.011 342.47 358.025 329.937 358.025C317.405 358.025 307.237 356.011 307.237 353.523C307.237 351.035 317.396 349.03 329.937 349.03C342.479 349.03 352.629 351.043 352.629 353.523Z" fill="#C1C8EB"/>
<path d="M313.435 318.574V352.573C313.435 353.825 321.039 354.836 330.421 354.836C339.803 354.836 347.398 353.825 347.398 352.573V318.574H313.435Z" fill="#161F52"/>
<path d="M330.421 320.846C339.802 320.846 347.407 319.829 347.407 318.574C347.407 317.319 339.802 316.302 330.421 316.302C321.04 316.302 313.435 317.319 313.435 318.574C313.435 319.829 321.04 320.846 330.421 320.846Z" fill="#051145"/>
<path d="M334.961 303.756C331.793 307.256 330.248 311.472 330.429 315.109C334.072 314.945 338.12 313.001 341.287 309.502C344.455 306.003 346 301.795 345.819 298.158C342.177 298.322 338.137 300.266 334.961 303.756Z" fill="#318F61"/>
<path d="M325.872 298.719C329.04 302.219 330.593 306.435 330.403 310.072C326.77 309.908 322.722 307.955 319.554 304.465C316.386 300.974 314.833 296.758 315.023 293.121C318.656 293.276 322.704 295.229 325.872 298.719Z" fill="#318F61"/>
<path d="M330.421 297.173V318.574" stroke="#051145" stroke-width="0.78" stroke-miterlimit="10"/>
<path d="M337.645 288.654C335.919 288.516 333.381 291.09 333.381 291.09C333.074 288.895 332.03 286.869 330.421 285.345C328.811 286.869 327.765 288.894 327.452 291.09C327.452 291.09 324.923 288.498 323.188 288.654C323.213 290.982 323.909 293.253 325.192 295.195C326.475 297.136 328.291 298.666 330.421 299.601C332.549 298.665 334.363 297.135 335.644 295.193C336.926 293.251 337.62 290.981 337.645 288.654Z" fill="#E34D4D"/>
<path opacity="0.55" d="M488.131 288.87C535.18 288.87 573.321 250.69 573.321 203.593C573.321 156.496 535.18 118.316 488.131 118.316C441.081 118.316 402.94 156.496 402.94 203.593C402.94 250.69 441.081 288.87 488.131 288.87Z" fill="url(#paint3_linear_1_319)"/>
<path d="M527.368 127.5L505.212 110.506C500.322 106.757 496.361 101.931 493.635 96.4016C490.909 90.8727 489.492 84.7895 489.494 78.624V0H486.801V78.624C486.801 84.7866 485.383 90.8663 482.657 96.3921C479.932 101.918 475.971 106.741 471.084 110.488L448.928 127.483L527.368 127.5Z" fill="url(#paint4_linear_1_319)"/>
<path opacity="0.55" d="M130.634 288.87C177.683 288.87 215.824 250.69 215.824 203.593C215.824 156.496 177.683 118.316 130.634 118.316C83.5844 118.316 45.4434 156.496 45.4434 203.593C45.4434 250.69 83.5844 288.87 130.634 288.87Z" fill="url(#paint5_linear_1_319)"/>
<path d="M169.88 127.5L147.715 110.506C142.825 106.757 138.864 101.931 136.138 96.4016C133.412 90.8727 131.995 84.7895 131.997 78.624V0H129.27V78.624C129.269 84.7866 127.851 90.8663 125.126 96.3921C122.4 101.918 118.44 106.741 113.552 110.488L91.3875 127.483L169.88 127.5Z" fill="url(#paint6_linear_1_319)"/>
</g>
<defs>
<linearGradient id="paint0_linear_1_319" x1="242.152" y1="40.4065" x2="146.213" y2="327.939" gradientUnits="userSpaceOnUse">
<stop stop-color="white"/>
<stop offset="1" stop-color="#9DAAEB" stop-opacity="0"/>
</linearGradient>
<linearGradient id="paint1_linear_1_319" x1="482.891" y1="14.7228" x2="386.953" y2="302.247" gradientUnits="userSpaceOnUse">
<stop stop-color="white"/>
<stop offset="1" stop-color="#9DAAEB" stop-opacity="0"/>
</linearGradient>
<linearGradient id="paint2_linear_1_319" x1="323.015" y1="-6.26379" x2="323.015" y2="189.156" gradientUnits="userSpaceOnUse">
<stop stop-color="white"/>
<stop offset="1" stop-color="#9DAAEB" stop-opacity="0"/>
</linearGradient>
<linearGradient id="paint3_linear_1_319" x1="488.131" y1="98.7034" x2="488.131" y2="247.32" gradientUnits="userSpaceOnUse">
<stop stop-color="white"/>
<stop offset="1" stop-color="#9DAAEB" stop-opacity="0"/>
</linearGradient>
<linearGradient id="paint4_linear_1_319" x1="488.131" y1="110.955" x2="488.131" y2="10.705" gradientUnits="userSpaceOnUse">
<stop stop-color="white"/>
<stop offset="1" stop-color="#9DAAEB" stop-opacity="0"/>
</linearGradient>
<linearGradient id="paint5_linear_1_319" x1="130.634" y1="98.7034" x2="130.634" y2="247.32" gradientUnits="userSpaceOnUse">
<stop stop-color="white"/>
<stop offset="1" stop-color="#9DAAEB" stop-opacity="0"/>
</linearGradient>
<linearGradient id="paint6_linear_1_319" x1="130.634" y1="110.955" x2="130.634" y2="10.705" gradientUnits="userSpaceOnUse">
<stop stop-color="white"/>
<stop offset="1" stop-color="#9DAAEB" stop-opacity="0"/>
</linearGradient>
<clipPath id="clip0_1_319">
<rect width="600" height="432" fill="white"/>
</clipPath>
</defs>
</svg>
